<svg xmlns="http://www.w3.org/2000/svg" width="72.039" height="66.04" viewBox="0 0 72.039 66.04">
  <path id="Jfr_logo" data-name="Jfr logo" d="M4.62-16.03C2.8-15.61.77-13.65,0-10.64-1.61-4.62,1.4.21,6.65,1.12c5.67.98,11.48-.7,16.87-9.66A286.237,286.237,0,0,0,36.47-34.3c1.75-4.13,1.4-7.21.49-8.75-.49-.84-1.12-.91-1.68-.07-2.24,3.43-8.26,15.4-12.04,23.17C18.55-10.22,13.44.42,7.14-1.05c-2.17-.49-4.9-3.64-1.47-13.58C6.09-15.82,5.6-16.24,4.62-16.03Zm32.55,3.15c3.71-7.35,8.68-15.26,11.48-20.02,3.01-5.18,3.36-8.12,2.38-10.5-.35-.84-1.05-.98-1.68-.07C41.51-31.85,25.48-5.04,23.52,10.5c-.77,5.95,1.05,8.4,2.87,10.01,1.96,1.75,4.13,2.38,6.79-.91,3.43-4.27,6.79-12.39,8.05-19.67,6.3-2.59,11.62-11.41,14.63-20.02a16.384,16.384,0,0,0,8.33-2.59c-3.01,3.36-7.21,8.54-8.68,13.23-1.75,5.6.35,10.43,5.67,10.57,3.85.07,8.05-2.87,9.8-7.07a6.282,6.282,0,0,0,.35-4.55c-.35-.7-.77-.63-1.05,0C67.97-5.25,64.4-.7,61.6-.84c-2.17-.14-3.08-2.94-1.75-6.79,1.26-3.57,4.62-8.4,7.98-12.11,2.1-2.31.35-5.6-.98-7.14-.63-.7-1.19-.42-2.1.21a17.2,17.2,0,0,1-7.7,3.29c1.54-4.62,2.1-8.96-.07-8.82-2.94.21-9.38,9.66-3.85,11.69C50.26-12.32,45.92-4.97,41.58-2.24c.07-.7.07-1.33.14-1.96C42-9.24,40.6-11.97,37.17-12.88ZM36.89-1.19c-1.4-.14-1.96-1.82-1.96-4.06,0-1.68.7-5.32,1.47-5.6.56-.21,1.26,1.96,1.12,4.55A33.914,33.914,0,0,1,36.89-1.19ZM36.47.7c-2.31,9.59-7.56,19.25-9.1,17.29-1.61-2.03.91-10.71,4.83-20.02A4.819,4.819,0,0,0,36.47.7Z" transform="translate(0.434 44.094)" fill="#fff"/>
</svg>
