<svg xmlns="http://www.w3.org/2000/svg" width="513.939" height="168.799" viewBox="0 0 513.939 168.799">
  <path id="jfr-logo-intro" d="M12.354,26.869C7.749,27.932,2.613,32.891.665,40.506-3.409,55.738,4.207,67.958,17.49,70.261,31.836,72.74,46.536,68.49,60.173,45.82,69.914,29.7,87.094-5.542,92.939-19.357,97.366-29.806,96.481-37.6,94.178-41.5c-1.24-2.125-2.834-2.3-4.251-.177-5.668,8.678-20.9,38.964-30.463,58.623C47.6,41.569,34.67,68.49,18.73,64.77c-5.49-1.24-12.4-9.21-3.719-34.359C16.073,27.4,14.833,26.338,12.354,26.869Zm82.533,7.97c9.564-18.6,21.784-38.61,29.046-50.653,7.616-12.929,8.147-20.545,6.022-26.566-.708-2.125-3.011-2.3-4.428-.177-19.659,29.4-60.394,97.233-65.353,136.729-1.948,15.054,3.365,21.962,7.793,25.681,5.313,4.6,9.741,3.9,15.763-3.542,8.5-10.627,16.294-30.286,19.128-48.174a22.98,22.98,0,0,0,8.76-5.957,13.646,13.646,0,0,0,3.467-5.557c1.827-4.128-8.857,3.15-11.341,4.784.177-2.125.354-4.074.354-6.022C104.274,43.694,101.617,36.964,94.887,34.839ZM94,64.239c-3.365-.708-4.959-4.428-4.782-10.1.177-4.074,1.771-13.46,3.542-14.169,1.24-.531,3.011,4.959,2.834,11.512A80.947,80.947,0,0,1,94,64.239ZM82.135,62.291c2.125,4.251,5.668,6.553,10.8,7.084-5.845,24.264-19.128,48.705-23.024,43.569C65.841,107.808,72.217,85.846,82.135,62.291ZM149.74,11.46c4.428-11.158,5.845-21.43.354-21.253-6.553.177-21.962,21.076-11.866,27.629-6.553,9.387-16.936,26.957-21.009,34.75-4.782,9.033,22.249-20.581,28.979-32.979a38.506,38.506,0,0,0,20.722-6.73c-7.084,8.147-17.357,20.722-21.253,32.411-4.428,13.283.708,24.972,13.46,25.5,9.387.354,19.659-7.084,23.733-17.357,1.948-4.782,1.771-9.033.886-10.981-.708-1.417-1.771-1.24-2.48.177C175.6,55.384,167.1,66.364,160.19,66.01c-5.136-.177-7.261-7.084-4.428-16.294s11.512-20.368,19.482-29.4c5.136-5.845.886-13.637-2.48-17.357-1.24-1.417-2.657-1.063-4.782.354C161.429,7.918,155.408,10.752,149.74,11.46ZM267.063-22.722C251.654,1.542,235.006,34.839,230.4,50.956c-2.657,9.564-.886,14.877,1.594,17.534,1.24,1.24,2.125,1.24,2.834-.531,6.2-14.7,11.512-26.389,16.471-36.13A16.219,16.219,0,0,0,262.281,33.6c23.2-4.428,42.329-17.711,51.185-31.525,6.022-9.387,9.033-19.659,5.313-30.286-4.251-12.221-12.043-15.054-21.076-14.7-12.043.531-25.327,7.97-40.027,9.564-2.3.177-2.657,1.24-1.771,3.188C257.676-26.441,261.041-23.43,267.063-22.722ZM256.436,21.91c5.313-9.918,10.272-18.065,14.877-26.212,4.959-8.5,6.73-14.7,6.73-19.482,11.689-3.365,29.4-12.575,33.119-2.834C315.945-14.22,296.109,14.471,256.436,21.91ZM333.3,11.46c4.428-11.158,5.845-21.43.354-21.253-6.553.177-21.962,21.076-11.866,27.629-6.553,9.387-18.419,26.035-22.493,33.828-4.782,9.033-4.782,17.18.354,22.493,1.594,1.594,2.657.708,3.011-.886,3.365-16.117,20.368-41.267,27.1-53.664a38.506,38.506,0,0,0,20.722-6.73C343.4,21.024,333.124,33.6,329.228,45.288c-4.428,13.283.708,24.972,13.46,25.5,9.387.354,19.659-7.084,23.733-17.357,1.948-4.782,1.771-9.033.886-10.981-.708-1.417-1.771-1.24-2.48.177-5.667,12.752-14.169,23.733-21.076,23.378-5.136-.177-7.262-7.084-4.428-16.294s11.512-20.368,19.482-29.4c5.136-5.845.886-13.637-2.48-17.357-1.24-1.417-2.657-1.063-4.782.354C344.991,7.918,338.969,10.752,333.3,11.46ZM423.1,29.349c.708-.886.708-1.771-.531-1.771-1.417,0-2.48.354-3.542.354.177-1.417.177-2.657.354-4.074,1.063-12.752-4.251-13.992-8.324-19.482C407.51-.406,404.5-2,399.009-1.646c-10.627.708-21.43,10.981-28.16,23.024-7.97,14.169-10.627,29.577-2.834,39.85,7.084,9.21,15.94,9.918,22.316,7.793,13.106-4.428,24.264-22.316,27.983-37.37A7.22,7.22,0,0,0,423.1,29.349Zm-15.231-4.782a14.564,14.564,0,0,1-3.9-12.575c.886-5.136,4.428-6.2,5.313-.531C409.813,14.648,409.281,19.076,407.865,24.567Zm-1.24,4.782a93.464,93.464,0,0,1-6.2,14.169c-8.678,16.294-19.482,22.493-24.441,18.419-4.6-3.9-1.948-20.19,5.49-33.651a61.945,61.945,0,0,1,13.637-16.648c.177,6.553,4.428,12.752,8.147,15.586A13.472,13.472,0,0,0,406.625,29.349ZM470.384,48.3c8.855-18.774,25.858-48,34.359-63.228,7.439-13.283,7.97-20.9,5.49-26.744-.886-2.3-2.48-2.48-4.251,0-6.376,9.033-19.836,33.119-29.4,51.362.177-6.553-3.365-12.043-10.627-12.043-8.855,0-23.024,7.97-37.016,28.515-14.523,21.253-11.335,43.746,5.136,43.746,8.324,0,16.294-6.553,21.962-13.637,0,8.324,4.782,13.637,14.346,14.169,9.741.531,20.722-8.855,25.5-18.6,2.3-4.782,2.125-9.387,1.417-10.981-.708-1.417-1.948-1.417-2.834.177-6.2,12.221-15.763,24.087-23.024,24.441C465.425,65.833,465.6,58.572,470.384,48.3ZM468.79,6.679c5.136.177,2.48,11.335-7.793,30.994-8.324,16.117-17.888,26.566-24.972,26.389-6.907-.177-4.959-15.586,4.6-30.817C450.371,17.659,463.3,6.5,468.79,6.679Z" transform="translate(1.485 45.067)" fill="none" stroke="#fff" stroke-width="2"/>
</svg>
