<svg xmlns="http://www.w3.org/2000/svg" width="509.592" height="172.762" viewBox="0 0 509.592 172.762">
  <path id="Jfr_intro" data-name="Jfr intro" d="M11.946-41.449C7.24-40.363,1.991-35.295,0-27.512-4.163-11.946,3.62.543,17.195,2.9,31.856,5.43,46.879,1.086,60.816-22.082,70.771-38.553,88.328-74.572,94.3-88.69c4.525-10.679,3.62-18.643,1.267-22.625-1.267-2.172-2.9-2.353-4.344-.181-5.792,8.869-21.358,39.82-31.132,59.911C47.965-26.426,34.752,1.086,18.462-2.715c-5.611-1.267-12.67-9.412-3.8-35.114C15.747-40.906,14.48-41.992,11.946-41.449ZM96.111-33.3c9.593-19.005,22.444-39.458,29.684-51.766,7.783-13.394,8.688-21,6.154-27.15-.9-2.172-2.715-2.534-4.344-.181C107.333-82.355,65.884-13.032,60.816,27.15c-1.991,15.385,2.715,21.72,7.421,25.883,5.068,4.525,10.679,6.154,17.557-2.353,8.869-11.041,17.557-32.037,20.815-50.861,16.29-6.7,30.046-29.5,37.829-51.766,5.792,0,13.575-1.81,21.539-6.7-7.783,8.688-18.643,22.082-22.444,34.209-4.525,14.48.9,26.969,14.661,27.331,9.955.181,20.815-7.421,25.34-18.281,2.172-5.249,1.81-9.774.9-11.765-.9-1.81-1.991-1.629-2.715,0-5.973,13.575-15.2,25.34-22.444,24.978-5.611-.362-7.964-7.6-4.525-17.557,3.258-9.231,11.946-21.72,20.634-31.313,5.43-5.973.9-14.48-2.534-18.462-1.629-1.81-3.077-1.086-5.43.543-7.059,4.887-13.575,7.783-19.91,8.507,3.982-11.946,5.43-23.168-.181-22.806-7.6.543-24.254,24.978-9.955,30.227-7.421,21.177-18.643,40.182-29.865,47.241.181-1.81.181-3.439.362-5.068C108.6-23.892,104.98-30.951,96.111-33.3ZM95.387-3.077c-3.62-.362-5.068-4.706-5.068-10.5,0-4.344,1.81-13.756,3.8-14.48,1.448-.543,3.258,5.068,2.9,11.765A87.691,87.691,0,0,1,95.387-3.077ZM94.3,1.81c-5.973,24.8-19.548,49.775-23.53,44.707C66.608,41.268,73.124,18.824,83.26-5.249,85.251-.9,89.052,1.267,94.3,1.81ZM256.658-92.129c-15.747,24.8-32.761,58.825-37.467,75.3-2.715,9.774-.9,15.2,1.629,17.919,1.267,1.267,2.172,1.267,2.9-.543,6.335-15.023,11.765-26.969,16.833-36.924a16.575,16.575,0,0,0,11.222,1.81c23.711-4.525,43.259-18.1,52.309-32.218,6.154-9.593,9.231-20.091,5.43-30.951-4.344-12.489-12.308-15.385-21.539-15.023-12.308.543-25.883,8.145-40.906,9.774-2.353.181-2.715,1.267-1.81,3.258C247.065-95.93,250.5-92.853,256.658-92.129ZM245.8-46.517c5.43-10.136,10.5-18.462,15.2-26.788,5.068-8.688,6.878-15.023,6.878-19.91,11.946-3.439,30.046-12.851,33.847-2.9C306.614-83.441,286.342-54.119,245.8-46.517ZM324.352-57.2c4.525-11.4,5.973-21.9.362-21.72-6.7.181-22.444,21.539-12.127,28.236-6.7,9.593-18.824,26.607-22.987,34.571-4.887,9.231-4.887,17.557.362,22.987,1.629,1.629,2.715.724,3.077-.9C296.478-10.5,313.854-36.2,320.732-48.87a39.352,39.352,0,0,0,21.177-6.878c-7.24,8.326-17.738,21.177-21.72,33.123C315.664-9.05,320.913,2.9,333.945,3.439,343.538,3.8,354.036-3.8,358.2-14.3c1.991-4.887,1.81-9.231.9-11.222-.724-1.448-1.81-1.267-2.534.181-5.792,13.032-14.48,24.254-21.539,23.892-5.249-.181-7.421-7.24-4.525-16.652s11.765-20.815,19.91-30.046c5.249-5.973.905-13.937-2.534-17.738-1.267-1.448-2.715-1.086-4.887.362C336.3-60.816,330.144-57.92,324.352-57.2Zm91.767,18.281c.724-.9.724-1.81-.543-1.81-1.448,0-2.534.362-3.62.362.181-1.448.181-2.715.362-4.163,1.086-13.032-4.344-14.3-8.507-19.91-3.62-4.887-6.7-6.516-12.308-6.154-10.86.724-21.9,11.222-28.779,23.53-8.145,14.48-10.86,30.227-2.9,40.725,7.24,9.412,16.29,10.136,22.806,7.964,13.394-4.525,24.8-22.806,28.6-38.191A7.379,7.379,0,0,0,416.119-38.915ZM400.553-43.8a14.884,14.884,0,0,1-3.982-12.851c.9-5.249,4.525-6.335,5.43-.543C402.544-53.938,402-49.413,400.553-43.8Zm-1.267,4.887a95.515,95.515,0,0,1-6.335,14.48c-8.869,16.652-19.91,22.987-24.978,18.824-4.706-3.982-1.991-20.634,5.611-34.39a63.306,63.306,0,0,1,13.937-17.014c.181,6.7,4.525,13.032,8.326,15.928A13.769,13.769,0,0,0,399.286-38.915Zm65.16,19.367C473.5-38.734,490.872-68.6,499.56-84.165c7.6-13.575,8.145-21.358,5.611-27.331-.9-2.353-2.534-2.534-4.344,0-6.516,9.231-20.272,33.847-30.046,52.49.181-6.7-3.439-12.308-10.86-12.308-9.05,0-23.53,8.145-37.829,29.141-14.842,21.72-11.584,44.707,5.249,44.707,8.507,0,16.652-6.7,22.444-13.937,0,8.507,4.887,13.937,14.661,14.48,9.955.543,21.177-9.05,26.064-19,2.353-4.887,2.172-9.593,1.448-11.222-.724-1.448-1.991-1.448-2.9.181-6.335,12.489-16.109,24.616-23.53,24.978C459.378-1.629,459.559-9.05,464.446-19.548Zm-1.629-42.535c5.249.181,2.534,11.584-7.964,31.675-8.507,16.471-18.281,27.15-25.521,26.969-7.059-.181-5.068-15.928,4.706-31.494C443.993-50.861,457.206-62.264,462.817-62.083Z" transform="translate(2.174 115.015)" fill="rgba(255,255,255,0)" stroke="#fff" stroke-width="2"/>
</svg>
