<svg xmlns="http://www.w3.org/2000/svg" width="48.266" height="66.04" viewBox="0 0 48.266 66.04">
  <path id="Path_1" data-name="Path 1" d="M7.35-12.88c3.71-7.35,8.68-15.26,11.48-20.02,3.01-5.18,3.36-8.12,2.38-10.5-.35-.84-1.05-.98-1.68-.07C11.69-31.85-4.34-5.04-6.3,10.5c-.77,5.95,1.05,8.4,2.87,10.01,1.96,1.75,4.13,2.38,6.79-.91C6.79,15.33,10.15,7.21,11.41-.07c6.3-2.59,11.62-11.41,14.63-20.02a16.384,16.384,0,0,0,8.33-2.59c-3.01,3.36-7.21,8.54-8.68,13.23-1.75,5.6.35,10.43,5.67,10.57,3.85.07,8.05-2.87,9.8-7.07a6.282,6.282,0,0,0,.35-4.55c-.35-.7-.77-.63-1.05,0C38.15-5.25,34.58-.7,31.78-.84c-2.17-.14-3.08-2.94-1.75-6.79,1.26-3.57,4.62-8.4,7.98-12.11,2.1-2.31.35-5.6-.98-7.14-.63-.7-1.19-.42-2.1.21a17.2,17.2,0,0,1-7.7,3.29c1.54-4.62,2.1-8.96-.07-8.82-2.94.21-9.38,9.66-3.85,11.69C20.44-12.32,16.1-4.97,11.76-2.24c.07-.7.07-1.33.14-1.96C12.18-9.24,10.78-11.97,7.35-12.88ZM7.07-1.19c-1.4-.14-1.96-1.82-1.96-4.06,0-1.68.7-5.32,1.47-5.6.56-.21,1.26,1.96,1.12,4.55A33.914,33.914,0,0,1,7.07-1.19ZM6.65.7C4.34,10.29-.91,19.95-2.45,17.99c-1.61-2.03.91-10.71,4.83-20.02A4.819,4.819,0,0,0,6.65.7Z" transform="translate(6.481 44.094)" fill="#000"/>
</svg>
